# xmcd
#
# Track frame offsets:
# 150
# 15461
# 29620
# 44473
# 49389
#
# Disc length: 790 seconds
#
# Revision: 0
# Processed by: cddbd v1.5.2PL0 Copyright (c) Steve Scherf et al.
# Submitted via: Audion 3.0.2 (http://www.panic.com/audion/)
#
DISCID=3d031405
DTITLE=Juliana Hatfield w Evan Dando World Cafe 14.7.93 - Juliana Hatfield w Evan Dando World Cafe 14.7.93
DYEAR=1900
DGENRE=
TTITLE0=1
TTITLE1=2
TTITLE2=3
TTITLE3=4
TTITLE4=5
EXTD=
EXTT0=
EXTT1=
EXTT2=
EXTT3=
EXTT4=
PLAYORDER=
